<svg xmlns="http://www.w3.org/2000/svg" width="46.96" height="46.96" viewBox="0 0 46.96 46.96" xml:space="preserve"><path d="M44.414 11.82h-6.175V6.782c0-3.244-2.556-5.896-5.798-5.896H16.545c-3.243 0-5.896 2.654-5.896 5.896v5.038h-6.13c-1.414 0-2.59 1.149-2.59 2.563v5.565c0 1.414 1.176 2.594 2.59 2.594h.763l1.274 6.983a9 9 0 0 1 1.096-.076c4.951 0 8.98 4.029 8.98 8.98 0 .528-.048 1.052-.135 1.552h21.892a2.55 2.55 0 0 0 2.519-2.088l2.798-15.352h.71c1.413 0 2.545-1.181 2.545-2.594v-5.565a2.554 2.554 0 0 0-2.547-2.562M15.439 6.782c0-.619.487-1.108 1.106-1.108h15.896c.617 0 1.08.489 1.08 1.108v5.038H15.439zm3.502 24.043c0 .984-.767 1.781-1.75 1.781-.984 0-1.752-.797-1.752-1.781v-9.776c0-.984.768-1.781 1.752-1.781.983 0 1.75.797 1.75 1.781zm7.362 0a1.787 1.787 0 0 1-3.574 0v-9.776a1.787 1.787 0 0 1 3.574 0zm7.291 0a1.786 1.786 0 0 1-3.574 0v-9.776a1.787 1.787 0 0 1 3.574 0z"/><path d="M7.652 30.769A7.65 7.65 0 0 0 0 38.421a7.651 7.651 0 1 0 15.303 0 7.65 7.65 0 0 0-7.651-7.652m4.355 7.537a.96.96 0 0 1-.962.962H8.577v2.469a.96.96 0 0 1-.962.962H7.61a.96.96 0 0 1-.962-.962v-2.469h-2.47a.96.96 0 0 1-.962-.962V38.3c0-.531.431-.963.962-.963h2.47V34.94c0-.531.431-.962.962-.962h.006c.531 0 .962.431.962.962v2.396h2.468c.531 0 .962.432.962.963z"/></svg>